<svg version="1.1" id="Layer_1" xmlns="http://www.w3.org/2000/svg" xmlns:xlink="http://www.w3.org/1999/xlink" x="0px" y="0px"
	 viewBox="0 0 3400 1200"  xml:space="preserve">
<path fill="#655AF4" opacity="1.000000" stroke="none"
	d="
M932.243835,898.698975
	C939.050293,932.012939 941.189087,965.319519 941.817810,999.198181
	C887.962952,999.198181 834.558960,999.198181 780.265808,999.198181
	C780.265808,995.952637 780.246765,992.706909 780.268738,989.461426
	C780.509338,953.960449 775.749878,919.169434 761.261047,886.615173
	C730.160522,816.736572 679.004395,768.807617 604.500549,747.755066
	C578.747192,740.477966 552.231201,737.327820 525.538086,737.256653
	C420.212311,736.975769 314.885437,737.109009 209.558960,737.088684
	C207.249084,737.088257 204.939194,737.088684 202.269928,737.088684
	C202.269928,685.699219 202.269928,634.669861 202.269928,583.124023
	C204.448196,583.124023 206.403824,583.124023 208.359451,583.124023
	C380.515015,583.124451 552.670593,583.125793 724.826172,583.124207
	C749.288635,583.123962 772.736755,578.698425 793.138550,564.512390
	C821.758301,544.612000 838.586853,517.029663 844.056274,482.534790
	C849.944031,445.400879 835.796204,415.125031 810.803894,389.358185
	C793.223206,371.232635 770.807678,362.247314 745.705200,358.602753
	C719.143005,354.746277 692.558899,355.917633 665.974792,355.890839
	C513.484741,355.737000 360.994507,355.810242 208.504318,355.806458
	C206.538162,355.806396 204.571991,355.806427 202.256195,355.806427
	C202.256195,304.455597 202.256195,253.559738 202.256195,202.233765
	C203.679642,202.124313 205.113098,201.917542 206.546570,201.917542
	C378.868622,201.919113 551.190918,201.790817 723.512573,202.054214
	C766.529358,202.119965 808.271301,209.719269 847.922852,227.121735
	C876.790527,239.791306 902.499390,257.122192 924.309937,279.887238
	C936.962036,293.092987 950.217224,306.051544 960.796631,320.841248
	C980.681458,348.639771 992.950378,380.262817 999.751038,413.664978
	C1002.916809,429.214417 1004.418518,445.275787 1004.877014,461.156982
	C1005.384949,478.748230 1005.037659,496.543762 1002.927307,513.992065
	C999.030640,546.208679 986.333923,575.480530 969.485718,603.042175
	C942.768005,646.749023 907.417480,681.469482 862.429443,706.187500
	C859.079041,708.028320 855.578125,709.611450 852.079285,711.161133
	C848.735352,712.642273 845.302795,713.923279 840.958679,715.675598
	C889.397888,767.791443 918.623596,829.166016 932.243835,898.698975
z"/>
</svg>
