<svg version="1.1" id="Layer_1" xmlns="http://www.w3.org/2000/svg" xmlns:xlink="http://www.w3.org/1999/xlink" x="0px"
     y="0px"
     width="100%" viewBox="0 0 3400 1200" enable-background="new 0 0 3400 1200" xml:space="preserve">
<path fill="#7064f5" opacity="1.000000" stroke="none"
      d="
M932.243835,898.698975
	C939.050293,932.012939 941.189087,965.319519 941.817810,999.198181
	C887.962952,999.198181 834.558960,999.198181 780.265808,999.198181
	C780.265808,995.952637 780.246765,992.706909 780.268738,989.461426
	C780.509338,953.960449 775.749878,919.169434 761.261047,886.615173
	C730.160522,816.736572 679.004395,768.807617 604.500549,747.755066
	C578.747192,740.477966 552.231201,737.327820 525.538086,737.256653
	C420.212311,736.975769 314.885437,737.109009 209.558960,737.088684
	C207.249084,737.088257 204.939194,737.088684 202.269928,737.088684
	C202.269928,685.699219 202.269928,634.669861 202.269928,583.124023
	C204.448196,583.124023 206.403824,583.124023 208.359451,583.124023
	C380.515015,583.124451 552.670593,583.125793 724.826172,583.124207
	C749.288635,583.123962 772.736755,578.698425 793.138550,564.512390
	C821.758301,544.612000 838.586853,517.029663 844.056274,482.534790
	C849.944031,445.400879 835.796204,415.125031 810.803894,389.358185
	C793.223206,371.232635 770.807678,362.247314 745.705200,358.602753
	C719.143005,354.746277 692.558899,355.917633 665.974792,355.890839
	C513.484741,355.737000 360.994507,355.810242 208.504318,355.806458
	C206.538162,355.806396 204.571991,355.806427 202.256195,355.806427
	C202.256195,304.455597 202.256195,253.559738 202.256195,202.233765
	C203.679642,202.124313 205.113098,201.917542 206.546570,201.917542
	C378.868622,201.919113 551.190918,201.790817 723.512573,202.054214
	C766.529358,202.119965 808.271301,209.719269 847.922852,227.121735
	C876.790527,239.791306 902.499390,257.122192 924.309937,279.887238
	C936.962036,293.092987 950.217224,306.051544 960.796631,320.841248
	C980.681458,348.639771 992.950378,380.262817 999.751038,413.664978
	C1002.916809,429.214417 1004.418518,445.275787 1004.877014,461.156982
	C1005.384949,478.748230 1005.037659,496.543762 1002.927307,513.992065
	C999.030640,546.208679 986.333923,575.480530 969.485718,603.042175
	C942.768005,646.749023 907.417480,681.469482 862.429443,706.187500
	C859.079041,708.028320 855.578125,709.611450 852.079285,711.161133
	C848.735352,712.642273 845.302795,713.923279 840.958679,715.675598
	C889.397888,767.791443 918.623596,829.166016 932.243835,898.698975
z"/>
    <path fill="#7064f5" opacity="1.000000" stroke="none"
          d="
M2403.336426,711.594055
	C2380.447998,709.534119 2360.210205,702.159485 2342.356201,688.069946
	C2297.493408,652.666260 2284.756836,587.262085 2314.967773,539.210449
	C2334.926758,507.464966 2364.187012,488.733612 2402.086426,485.080963
	C2451.125244,480.354706 2496.299072,506.573822 2517.065674,551.598755
	C2523.138428,564.765747 2526.426025,578.684387 2526.518066,593.155884
	C2526.724854,625.649353 2527.198242,658.159912 2526.418213,690.636047
	C2525.455811,730.706726 2506.333984,761.141052 2473.209717,782.688660
	C2430.083740,810.742798 2372.001709,804.917175 2335.251465,769.578369
	C2334.178955,768.546997 2332.890869,767.739380 2331.258057,766.485596
	C2335.151367,762.924133 2338.402588,759.950012 2341.833252,756.811829
	C2351.646240,766.437927 2362.893066,774.778381 2376.274658,779.475769
	C2413.179688,792.430786 2447.120605,787.130127 2477.226807,761.640564
	C2493.656982,747.729858 2505.362549,730.520630 2510.186279,709.299988
	C2511.872070,701.885376 2512.883301,694.160950 2512.961670,686.565125
	C2513.271729,656.572266 2513.543457,626.565796 2512.979492,596.580322
	C2512.189209,554.548096 2490.532471,525.234985 2453.611328,507.946259
	C2418.397949,491.457214 2383.339600,494.685852 2352.412842,518.824524
	C2321.745605,542.760864 2308.020752,575.133240 2314.298096,614.056274
	C2320.641113,653.383911 2344.094238,679.520691 2381.289307,692.731079
	C2403.170410,700.502563 2425.509033,699.285156 2447.414062,691.482300
	C2448.342041,691.151733 2449.278076,690.844238 2450.773438,690.333740
	C2452.572021,694.460571 2454.323242,698.478210 2456.276123,702.959290
	C2439.153076,709.999268 2421.797119,712.667175 2403.336426,711.594055
z"/>
    <path fill="#7064f5" opacity="1.000000" stroke="none"
          d="
M1787.411377,566.609802
	C1780.236084,542.500122 1764.782104,524.968750 1743.386108,512.627136
	C1698.117310,486.515381 1645.189819,498.406403 1613.003906,541.558655
	C1583.790771,580.725281 1588.462524,632.937439 1623.284058,668.652649
	C1661.165039,707.505737 1727.635010,707.365784 1764.022461,667.985535
	C1765.134155,666.782410 1765.932861,665.290283 1767.056396,663.676086
	C1771.234497,667.523132 1774.487061,670.517883 1777.740234,673.513245
	C1742.344604,711.429810 1688.464600,724.120728 1641.148804,698.993652
	C1590.009155,671.835938 1567.102661,613.802246 1586.241943,560.133240
	C1602.644409,514.138672 1648.923340,478.927521 1706.589722,485.497528
	C1763.283569,491.956787 1801.979492,540.961548 1805.042847,581.868774
	C1750.423584,581.868774 1695.822144,581.868774 1640.408081,581.868774
	C1640.408081,577.735352 1640.171021,573.636353 1640.606812,569.610107
	C1640.694580,568.799683 1643.329102,567.706055 1644.799194,567.690857
	C1658.795776,567.545105 1672.794556,567.607300 1686.792603,567.602905
	C1719.787720,567.592468 1752.782837,567.578186 1786.374634,567.614136
	C1787.118042,567.311768 1787.264648,566.960815 1787.411377,566.609802
z"/>
    <path fill="#7064f5" opacity="1.000000" stroke="none"
          d="
M2677.274902,500.960632
	C2644.287842,509.742493 2619.589844,528.770264 2607.260498,560.221008
	C2591.954590,599.264893 2598.687744,635.771484 2627.468506,666.743713
	C2655.479980,696.888123 2690.222656,704.215271 2729.326416,693.435242
	C2732.342041,692.603882 2735.287354,691.517273 2738.577148,690.447998
	C2740.366699,694.568176 2742.069824,698.489136 2744.294434,703.610840
	C2735.311035,706.067627 2726.870117,709.179199 2718.152588,710.628296
	C2665.972656,719.302429 2612.509033,690.050781 2593.771240,640.499512
	C2577.447510,597.332397 2584.469238,556.998840 2615.572266,521.901978
	C2633.845459,501.282257 2656.714355,488.712616 2684.093994,485.378998
	C2723.495605,480.581573 2756.901367,493.169830 2784.207764,521.852295
	C2804.231445,542.885010 2813.526611,568.243408 2813.601562,597.089661
	C2813.691895,631.909912 2813.638428,666.730591 2813.647217,701.551086
	C2813.647705,703.359985 2813.647217,705.168884 2813.647217,707.369934
	C2809.052734,707.369934 2804.841553,707.369934 2799.837402,707.369934
	C2799.837402,705.450928 2799.840576,703.535156 2799.836670,701.619385
	C2799.767334,666.300781 2799.366699,630.978943 2799.704834,595.664246
	C2800.209717,542.891907 2755.423584,505.784119 2716.380859,499.881042
	C2703.389648,497.916870 2690.520020,498.086761 2677.274902,500.960632
z"/>
    <path fill="#7064f5" opacity="1.000000" stroke="none"
          d="
M3089.932617,484.247986
	C3117.117676,485.133453 3140.368408,494.727844 3160.326416,512.279724
	C3180.056152,529.631042 3193.483887,550.813599 3198.018555,577.008301
	C3199.120850,583.375183 3199.688721,589.911987 3199.718750,596.374329
	C3199.884277,632.033630 3199.810303,667.693970 3199.800781,703.354004
	C3199.800537,704.640930 3199.618896,705.927856 3199.501465,707.481079
	C3194.800293,707.481079 3190.369873,707.481079 3185.035889,707.481079
	C3185.035889,705.557007 3185.036133,703.655151 3185.035889,701.753296
	C3185.031006,667.093079 3185.338623,632.429260 3184.940186,597.773560
	C3184.467529,556.663025 3164.350342,527.075623 3128.723877,508.347900
	C3094.100098,490.147064 3051.429199,496.046875 3021.689209,521.546692
	C2997.973145,541.881714 2985.452393,567.362305 2985.688721,598.971252
	C2985.944092,633.129639 2985.739990,667.291504 2985.736084,701.451843
	C2985.736084,703.268738 2985.736084,705.085632 2985.736084,707.341309
	C2980.731445,707.341309 2976.029053,707.341309 2970.856934,707.341309
	C2970.768311,705.651672 2970.610107,704.034302 2970.609619,702.416931
	C2970.596680,668.256592 2970.957764,634.091797 2970.521973,599.937012
	C2969.822266,545.071899 3006.052734,506.393524 3043.937500,491.445160
	C3058.523926,485.689697 3073.776855,483.495819 3089.932617,484.247986
z"/>
    <path fill="#7064f5" opacity="1.000000" stroke="none"
          d="
M1915.657715,500.705811
	C1957.246948,474.596466 2018.083008,478.265442 2056.846924,518.238403
	C2078.579834,540.648987 2089.985840,566.932129 2089.977539,598.159607
	C2089.968262,632.991455 2089.980957,667.823242 2089.984131,702.655090
	C2089.984375,704.127502 2089.984375,705.599976 2089.984375,707.425049
	C2085.023926,707.425049 2080.452637,707.425049 2075.123779,707.425049
	C2075.123779,705.442200 2075.124023,703.517029 2075.123779,701.591858
	C2075.121338,666.926697 2075.173340,632.261353 2075.101562,597.596313
	C2075.013672,555.075317 2046.726440,515.853699 2006.293823,503.032745
	C1941.267700,482.413330 1886.972778,528.607605 1877.515747,578.277344
	C1876.308350,584.619141 1875.807617,591.182312 1875.776245,597.646729
	C1875.608765,632.144470 1875.694702,666.643372 1875.692993,701.141907
	C1875.692871,703.111206 1875.693115,705.080566 1875.693115,707.407227
	C1870.704590,707.407227 1866.156128,707.407227 1861.199097,707.407227
	C1861.106323,705.687744 1860.944580,704.079346 1860.943970,702.471008
	C1860.930542,667.972473 1861.043213,633.473572 1860.909058,598.975586
	C1860.742188,556.063538 1880.402710,524.264404 1915.657715,500.705811
z"/>
    <path fill="#7064f5" opacity="1.000000" stroke="none"
          d="
M2153.291016,607.652588
	C2153.182373,585.696899 2153.074219,564.204712 2153.060303,542.712463
	C2153.031006,497.724854 2153.051758,452.737213 2153.051758,407.749603
	C2153.051758,405.784637 2153.051514,403.819672 2153.051514,401.510773
	C2158.069580,401.510773 2162.632812,401.510773 2167.709961,401.510773
	C2167.709961,430.180389 2167.709961,458.749664 2167.709961,487.898010
	C2183.596924,487.898010 2198.990234,487.898010 2214.730225,487.898010
	C2214.730225,493.022522 2214.730225,497.568665 2214.730225,502.551208
	C2199.280273,502.551208 2184.005615,502.551208 2167.886230,502.551208
	C2167.886230,504.723816 2167.886230,506.471466 2167.886230,508.219116
	C2167.886963,537.877625 2168.065186,567.537476 2167.840332,597.194275
	C2167.595215,629.526978 2181.158447,654.980408 2205.783203,675.086853
	C2223.507324,689.558533 2243.710449,697.555481 2267.528564,697.679504
	C2267.528564,701.727783 2267.845703,705.527100 2267.324463,709.207581
	C2267.178955,710.235291 2264.543457,711.662537 2263.074951,711.633789
	C2248.793945,711.355042 2234.833984,708.826477 2221.968506,702.596558
	C2183.661377,684.046997 2159.943359,654.360535 2153.921387,611.561707
	C2153.759033,610.408447 2153.531250,609.264404 2153.291016,607.652588
z"/>
    <path fill="#7064f5" opacity="1.000000" stroke="none"
          d="
M1438.864014,676.000000
	C1438.888794,648.345764 1438.949463,621.191589 1438.931274,594.037354
	C1438.891113,534.272522 1487.990356,493.549438 1531.229492,486.083374
	C1537.887939,484.933655 1544.662598,484.457855 1551.929199,483.606445
	C1551.929199,488.888275 1551.929199,493.251068 1551.929199,497.228546
	C1543.041748,498.736267 1534.232422,499.550690 1525.796387,501.778473
	C1487.370605,511.925781 1458.417114,545.553833 1453.799316,584.981323
	C1453.162720,590.416931 1452.934204,595.927673 1452.921387,601.404541
	C1452.843018,634.892578 1452.881470,668.380737 1452.880981,701.868896
	C1452.880859,703.647583 1452.880981,705.426331 1452.880981,707.481934
	C1448.056885,707.481934 1443.812500,707.481934 1438.864136,707.481934
	C1438.864136,697.027039 1438.864136,686.763489 1438.864014,676.000000
z"/>
    <path fill="#7064f5" opacity="1.000000" stroke="none"
          d="
M2884.379883,508.000305
	C2884.380127,501.208618 2884.380127,494.916779 2884.380127,488.350098
	C2889.683838,488.350098 2894.421143,488.350098 2899.492676,488.350098
	C2899.492676,561.417114 2899.492676,634.292297 2899.492676,707.470032
	C2894.530029,707.470032 2889.790527,707.470032 2884.379395,707.470032
	C2884.379395,641.019958 2884.379395,574.760071 2884.379883,508.000305
z"/>
    <path fill="#7064f5" opacity="1.000000" stroke="none"
          d="
M2884.370117,423.000061
	C2884.370361,415.567047 2884.370361,408.634003 2884.370361,401.435974
	C2889.679932,401.435974 2894.410645,401.435974 2899.488037,401.435974
	C2899.488037,417.778809 2899.488037,433.938202 2899.488037,450.399811
	C2894.527588,450.399811 2889.795898,450.399811 2884.369873,450.399811
	C2884.369873,441.323029 2884.369873,432.411530 2884.370117,423.000061
z"/>
    <path fill="#7064f5" opacity="1.000000" stroke="none"
          d="
M1787.219482,566.794922
	C1787.264648,566.960815 1787.118042,567.311768 1786.812012,567.511108
	C1786.777710,567.232971 1786.902710,567.106506 1787.219482,566.794922
z"/>
</svg>
