<?xml version="1.0" encoding="UTF-8"?>
<svg xmlns="http://www.w3.org/2000/svg" xmlns:xlink="http://www.w3.org/1999/xlink" width="600px" height="212px"  viewBox="11802 5162 7470 7250" version="1.1">
<g id="surface1">
<path style=" stroke:none;fill-rule:nonzero;fill:rgb(0%,0%,0%);fill-opacity:1;" d="M 417.707031 212.175781 C 278.46875 212.175781 139.324219 212.175781 0.175781 212.175781 C 0.175781 141.511719 0.175781 70.84375 0.175781 0.175781 C 200.175781 0.175781 400.175781 0.175781 600.175781 0.175781 C 600.175781 70.84375 600.175781 141.511719 600.175781 212.175781 C 539.382812 212.175781 478.589844 212.175781 417.707031 212.175781 M 253.851562 104.253906 C 253.839844 104.308594 253.828125 104.359375 253.792969 104.574219 C 253.792969 111.394531 253.792969 118.210938 253.792969 125.023438 C 254.714844 125.023438 255.523438 125.023438 256.390625 125.023438 C 256.390625 124.648438 256.390625 124.328125 256.390625 124.007812 C 256.390625 117.972656 256.382812 111.9375 256.398438 105.902344 C 256.402344 104.90625 256.441406 103.898438 256.617188 102.921875 C 257.867188 96.027344 261.910156 91.410156 268.371094 88.957031 C 270.128906 88.289062 272.09375 88.175781 273.980469 87.808594 C 273.980469 87.105469 273.980469 86.304688 273.980469 85.503906 C 273.550781 85.503906 273.199219 85.480469 272.851562 85.507812 C 272.476562 85.539062 272.113281 85.652344 271.738281 85.671875 C 268.179688 85.847656 265.042969 87.203125 262.226562 89.269531 C 257.191406 92.964844 254.175781 97.832031 253.851562 104.253906 M 379.859375 70.878906 C 379.851562 70.9375 379.84375 70.992188 379.832031 71.210938 C 379.832031 82.507812 379.832031 93.804688 379.832031 105.101562 C 379.832031 105.394531 379.855469 105.6875 379.839844 106.058594 C 379.847656 106.117188 379.875 106.160156 379.933594 106.355469 C 380.289062 118.742188 391.757812 126.476562 400.066406 125.671875 C 400.066406 124.914062 400.066406 124.152344 400.066406 123.304688 C 399.222656 123.191406 398.398438 123.089844 397.578125 122.96875 C 392.640625 122.253906 388.933594 119.53125 385.925781 115.722656 C 383.511719 112.664062 382.566406 109.105469 382.574219 105.25 C 382.582031 100.097656 382.574219 94.949219 382.574219 89.800781 C 382.574219 89.484375 382.574219 89.167969 382.574219 88.773438 C 385.394531 88.773438 388.125 88.773438 390.917969 88.808594 C 390.953125 88.761719 390.992188 88.710938 391.042969 88.5 C 391.042969 87.75 391.042969 87 391.042969 86.1875 C 388.160156 86.1875 385.410156 86.1875 382.570312 86.1875 C 382.570312 81.058594 382.570312 75.988281 382.570312 70.863281 C 381.640625 70.863281 380.796875 70.863281 379.859375 70.878906 M 368.804688 124.734375 C 368.804688 119.308594 368.808594 113.882812 368.804688 108.453125 C 368.804688 106.695312 368.777344 104.9375 368.773438 103.09375 C 368.746094 103.042969 368.707031 103.003906 368.644531 102.832031 C 368.632812 102.570312 368.65625 102.300781 368.605469 102.042969 C 367.773438 97.75 365.753906 94.121094 362.582031 91.105469 C 357.503906 86.269531 351.453125 84.707031 344.664062 85.828125 C 339.546875 86.671875 335.5625 89.5 332.394531 93.5 C 329.753906 96.832031 328.410156 100.664062 328.40625 104.941406 C 328.398438 111.328125 328.40625 117.714844 328.40625 124.105469 C 328.40625 124.414062 328.40625 124.726562 328.40625 125.019531 C 329.359375 125.019531 330.191406 125.019531 331.0625 125.019531 C 331.0625 124.636719 331.0625 124.316406 331.0625 123.992188 C 331.0625 117.78125 331.050781 111.570312 331.066406 105.359375 C 331.078125 100.816406 332.730469 96.914062 335.859375 93.664062 C 340.183594 89.167969 345.429688 87.269531 351.640625 88.332031 C 356.652344 89.1875 360.390625 92.003906 363.28125 96.066406 C 365.453125 99.113281 366.144531 102.601562 366.164062 106.253906 C 366.191406 112.199219 366.171875 118.144531 366.171875 124.089844 C 366.171875 124.402344 366.171875 124.714844 366.171875 125.054688 C 367.066406 125.054688 367.855469 125.054688 368.734375 125.058594 C 368.753906 125.003906 368.769531 124.953125 368.804688 124.734375 M 562.238281 125.082031 C 563.050781 125.082031 563.859375 125.082031 564.710938 125.082031 C 564.710938 124.671875 564.710938 124.382812 564.710938 124.089844 C 564.710938 117.761719 564.71875 111.433594 564.703125 105.105469 C 564.699219 104.230469 564.640625 103.34375 564.503906 102.480469 C 563.488281 96.117188 559.984375 91.453125 554.558594 88.164062 C 550.839844 85.90625 546.789062 85.300781 542.472656 85.628906 C 539.445312 85.859375 536.628906 86.652344 534.136719 88.246094 C 528.332031 91.953125 524.6875 97.109375 524.199219 104.261719 C 524.195312 104.316406 524.191406 104.371094 524.171875 104.589844 C 524.171875 111.40625 524.171875 118.222656 524.171875 125.007812 C 525.164062 125.007812 526.027344 125.007812 526.921875 125.007812 C 526.921875 124.613281 526.921875 124.289062 526.921875 123.96875 C 526.921875 117.726562 526.914062 111.488281 526.929688 105.246094 C 526.933594 104.402344 527.007812 103.546875 527.144531 102.710938 C 527.753906 98.945312 529.515625 95.792969 532.257812 93.160156 C 537.628906 88.011719 543.929688 86.5625 550.773438 89.296875 C 557.511719 91.992188 561.574219 97.230469 561.949219 104.589844 C 562.296875 111.34375 562.011719 118.125 561.980469 124.949219 C 562.011719 124.988281 562.042969 125.027344 562.238281 125.082031 M 289.550781 100.230469 C 289.511719 100.273438 289.46875 100.316406 289.410156 100.523438 C 289.410156 101.277344 289.410156 102.03125 289.410156 102.785156 C 299.234375 102.785156 308.953125 102.785156 318.675781 102.785156 C 317.476562 93.128906 308.296875 85.121094 297.785156 85.609375 C 289.230469 86.007812 279.671875 92.699219 278.691406 104.316406 C 278.019531 112.257812 282.585938 120.894531 291.511719 124.433594 C 300.859375 128.144531 309.335938 124.035156 313.757812 118.945312 C 313.167969 118.390625 312.578125 117.835938 311.988281 117.28125 C 305.15625 125.058594 294.410156 124.316406 288.589844 119.898438 C 281.464844 114.496094 279.261719 105.375 283.230469 98.0625 C 287.160156 90.820312 295.097656 86.433594 303.546875 88.824219 C 309.039062 90.375 315.566406 96.714844 315.265625 100.273438 C 306.71875 100.273438 298.164062 100.273438 289.550781 100.230469 M 443.335938 120.859375 C 443.359375 120.921875 443.378906 120.988281 443.398438 121.207031 C 443.289062 128.371094 439.828125 133.652344 433.671875 136.828125 C 426.203125 140.679688 419.226562 139.179688 413.058594 133.507812 C 412.609375 133.976562 412.222656 134.417969 411.792969 134.820312 C 411.390625 135.195312 411.421875 135.503906 411.832031 135.832031 C 412.792969 136.59375 413.695312 137.441406 414.714844 138.117188 C 418.527344 140.632812 422.683594 141.714844 427.289062 141.34375 C 431.738281 140.984375 435.621094 139.394531 438.957031 136.523438 C 443.292969 132.792969 445.773438 128.015625 445.898438 122.28125 C 446.039062 116.054688 445.988281 109.8125 445.75 103.589844 C 445.523438 97.789062 442.601562 93.253906 438.132812 89.75 C 432.40625 85.261719 425.875 84.390625 419.171875 86.71875 C 409.339844 90.140625 404.679688 98.71875 405.742188 108.144531 C 406.300781 113.121094 408.644531 117.269531 412.285156 120.703125 C 415.492188 123.726562 419.359375 125.289062 423.652344 125.75 C 425.375 125.933594 427.164062 125.761719 428.890625 125.515625 C 430.453125 125.296875 431.972656 124.753906 433.605469 124.328125 C 433.199219 123.421875 432.855469 122.667969 432.519531 121.921875 C 428.253906 123.339844 426.089844 123.472656 422.96875 122.960938 C 416.304688 121.867188 411.890625 117.933594 409.300781 111.832031 C 408.179688 109.195312 407.835938 106.355469 408.238281 103.566406 C 408.742188 100.089844 410.183594 96.964844 412.515625 94.234375 C 415.582031 90.648438 419.40625 88.59375 424.054688 88.183594 C 427.679688 87.863281 431.148438 88.527344 434.316406 90.4375 C 439.96875 93.847656 443.328125 98.644531 443.335938 105.511719 C 443.355469 105.625 443.371094 105.742188 443.390625 106.019531 C 443.390625 110.945312 443.390625 115.875 443.335938 120.859375 M 127.953125 35.667969 C 97.199219 35.667969 66.449219 35.667969 35.691406 35.667969 C 35.691406 44.796875 35.691406 53.820312 35.691406 62.894531 C 36.09375 62.894531 36.441406 62.894531 36.789062 62.894531 C 66.644531 62.894531 96.496094 62.878906 126.347656 62.921875 C 128.472656 62.925781 130.621094 63.199219 132.714844 63.578125 C 137.910156 64.523438 142.144531 67.101562 145.257812 71.417969 C 147.363281 74.332031 148.808594 77.546875 149.082031 81.152344 C 149.292969 83.960938 148.925781 86.753906 147.871094 89.398438 C 146.40625 93.078125 144.269531 96.292969 141.160156 98.792969 C 137.476562 101.753906 133.140625 102.96875 128.527344 102.976562 C 97.941406 103.027344 67.351562 103 36.765625 103 C 36.398438 103 36.03125 103 35.675781 103 C 35.675781 112.136719 35.675781 121.136719 35.675781 130.222656 C 36.0625 130.222656 36.40625 130.222656 36.75 130.222656 C 52.542969 130.222656 68.335938 130.222656 84.132812 130.222656 C 89.402344 130.222656 94.667969 130.164062 99.914062 130.84375 C 104.421875 131.425781 108.777344 132.535156 112.933594 134.386719 C 116.261719 135.871094 119.253906 137.878906 122.046875 140.222656 C 126.304688 143.804688 129.855469 147.976562 132.503906 152.871094 C 135.988281 159.316406 137.535156 166.269531 137.621094 173.570312 C 137.632812 174.589844 137.625 175.605469 137.625 176.628906 C 147.210938 176.628906 156.667969 176.628906 166.25 176.628906 C 166.121094 157.832031 161.625 140.648438 148.535156 126.445312 C 154.027344 124.40625 158.589844 121.070312 162.683594 117.121094 C 164.757812 115.121094 166.589844 112.847656 168.386719 110.585938 C 170.945312 107.375 172.921875 103.796875 174.527344 100.015625 C 176.699219 94.902344 177.570312 89.546875 177.527344 84.023438 C 177.515625 82.527344 177.46875 81.03125 177.367188 79.542969 C 177.257812 77.96875 177.15625 76.390625 176.890625 74.839844 C 176.316406 71.472656 175.304688 68.222656 174.042969 65.042969 C 172.296875 60.660156 170.132812 56.523438 166.859375 53.089844 C 164.574219 50.691406 162.175781 48.382812 159.671875 46.210938 C 155.492188 42.585938 150.617188 40.132812 145.398438 38.394531 C 140.199219 36.664062 134.808594 35.945312 129.3125 35.625 C 129.261719 35.609375 129.214844 35.617188 129.058594 35.671875 C 128.980469 35.664062 128.902344 35.660156 128.730469 35.597656 C 128.527344 35.613281 128.320312 35.628906 127.953125 35.667969 M 493.9375 109.621094 C 493.9375 114.761719 493.9375 119.898438 493.9375 125.015625 C 494.894531 125.015625 495.730469 125.015625 496.59375 125.015625 C 496.59375 118.710938 496.605469 112.472656 496.582031 106.234375 C 496.578125 104.980469 496.527344 103.710938 496.34375 102.472656 C 495.347656 95.785156 491.589844 91.058594 485.796875 87.839844 C 482.707031 86.125 479.359375 85.621094 475.832031 85.636719 C 470.796875 85.652344 466.484375 87.375 462.890625 90.757812 C 458.078125 95.28125 455.714844 100.835938 456.351562 107.558594 C 456.570312 109.886719 457.0625 112.105469 458.066406 114.199219 C 460.402344 119.070312 464.171875 122.460938 469.117188 124.472656 C 472.015625 125.652344 475.074219 126.359375 478.242188 125.765625 C 480.140625 125.410156 482.011719 124.878906 483.886719 124.390625 C 484.023438 124.355469 484.210938 123.972656 484.164062 123.824219 C 483.96875 123.242188 483.710938 122.679688 483.417969 122.144531 C 483.355469 122.027344 483.023438 121.980469 482.84375 122.023438 C 481.324219 122.378906 479.824219 122.890625 478.285156 123.113281 C 474.53125 123.65625 470.929688 123.011719 467.722656 120.972656 C 461.5 117.023438 458.363281 111.433594 458.96875 103.917969 C 459.222656 100.757812 460.246094 97.933594 462.152344 95.429688 C 465.359375 91.21875 469.558594 88.65625 474.847656 88.1875 C 479.476562 87.777344 483.699219 89.023438 487.351562 91.984375 C 491.695312 95.5 494.140625 99.929688 493.945312 105.648438 C 493.902344 106.910156 493.9375 108.179688 493.9375 109.621094 M 511.765625 113.15625 C 511.765625 104.1875 511.765625 95.222656 511.765625 86.265625 C 510.804688 86.265625 509.964844 86.265625 509.128906 86.265625 C 509.128906 99.222656 509.128906 112.125 509.128906 125.027344 C 510.03125 125.027344 510.871094 125.027344 511.765625 125.027344 C 511.765625 121.09375 511.765625 117.210938 511.765625 113.15625 M 509.066406 77.289062 C 509.066406 78.070312 509.066406 78.847656 509.066406 79.632812 C 510.023438 79.632812 510.859375 79.632812 511.722656 79.632812 C 511.722656 76.695312 511.722656 73.808594 511.722656 70.898438 C 510.824219 70.898438 509.964844 70.898438 509.066406 70.898438 C 509.066406 73.007812 509.066406 75.0625 509.066406 77.289062 Z M 509.066406 77.289062 "/>
<path style=" stroke:none;fill-rule:nonzero;fill:rgb(39.607843%,35.294118%,95.294118%);fill-opacity:1;" d="M 129.355469 35.65625 C 134.808594 35.945312 140.199219 36.664062 145.398438 38.394531 C 150.617188 40.132812 155.492188 42.585938 159.671875 46.210938 C 162.175781 48.382812 164.574219 50.691406 166.859375 53.089844 C 170.132812 56.523438 172.296875 60.660156 174.042969 65.042969 C 175.304688 68.222656 176.316406 71.472656 176.890625 74.839844 C 177.15625 76.390625 177.257812 77.96875 177.367188 79.542969 C 177.46875 81.03125 177.515625 82.527344 177.527344 84.023438 C 177.570312 89.546875 176.699219 94.902344 174.527344 100.015625 C 172.921875 103.796875 170.945312 107.375 168.386719 110.585938 C 166.589844 112.847656 164.757812 115.121094 162.683594 117.121094 C 158.589844 121.070312 154.027344 124.40625 148.535156 126.445312 C 161.625 140.648438 166.121094 157.832031 166.25 176.628906 C 156.667969 176.628906 147.210938 176.628906 137.625 176.628906 C 137.625 175.605469 137.632812 174.589844 137.621094 173.570312 C 137.535156 166.269531 135.988281 159.316406 132.503906 152.871094 C 129.855469 147.976562 126.304688 143.804688 122.046875 140.222656 C 119.253906 137.878906 116.261719 135.871094 112.933594 134.386719 C 108.777344 132.535156 104.421875 131.425781 99.914062 130.84375 C 94.667969 130.164062 89.402344 130.222656 84.132812 130.222656 C 68.335938 130.222656 52.542969 130.222656 36.75 130.222656 C 36.40625 130.222656 36.0625 130.222656 35.675781 130.222656 C 35.675781 121.136719 35.675781 112.136719 35.675781 103 C 36.03125 103 36.398438 103 36.765625 103 C 67.351562 103 97.941406 103.027344 128.527344 102.976562 C 133.140625 102.96875 137.476562 101.753906 141.160156 98.792969 C 144.269531 96.292969 146.40625 93.078125 147.871094 89.398438 C 148.925781 86.753906 149.292969 83.960938 149.082031 81.152344 C 148.808594 77.546875 147.363281 74.332031 145.257812 71.417969 C 142.144531 67.101562 137.910156 64.523438 132.714844 63.578125 C 130.621094 63.199219 128.472656 62.925781 126.347656 62.921875 C 96.496094 62.878906 66.644531 62.894531 36.789062 62.894531 C 36.441406 62.894531 36.09375 62.894531 35.691406 62.894531 C 35.691406 53.820312 35.691406 44.796875 35.691406 35.667969 C 66.449219 35.667969 97.199219 35.667969 128.105469 35.671875 C 128.445312 35.667969 128.636719 35.660156 128.824219 35.652344 C 128.902344 35.660156 128.980469 35.664062 129.160156 35.675781 C 129.292969 35.667969 129.324219 35.664062 129.355469 35.65625 Z M 129.355469 35.65625 "/>
<path style=" stroke:none;fill-rule:nonzero;fill:rgb(39.215686%,34.901961%,94.509804%);fill-opacity:1;" d="M 443.394531 105.441406 C 443.328125 98.644531 439.96875 93.847656 434.316406 90.4375 C 431.148438 88.527344 427.679688 87.863281 424.054688 88.183594 C 419.40625 88.59375 415.582031 90.648438 412.515625 94.234375 C 410.183594 96.964844 408.742188 100.089844 408.238281 103.566406 C 407.835938 106.355469 408.179688 109.195312 409.300781 111.832031 C 411.890625 117.933594 416.304688 121.867188 422.96875 122.960938 C 426.089844 123.472656 428.253906 123.339844 432.519531 121.921875 C 432.855469 122.667969 433.199219 123.421875 433.605469 124.328125 C 431.972656 124.753906 430.453125 125.296875 428.890625 125.515625 C 427.164062 125.761719 425.375 125.933594 423.652344 125.75 C 419.359375 125.289062 415.492188 123.726562 412.285156 120.703125 C 408.644531 117.269531 406.300781 113.121094 405.742188 108.144531 C 404.679688 98.71875 409.339844 90.140625 419.171875 86.71875 C 425.875 84.390625 432.40625 85.261719 438.132812 89.75 C 442.601562 93.253906 445.523438 97.789062 445.75 103.589844 C 445.988281 109.8125 446.039062 116.054688 445.898438 122.28125 C 445.773438 128.015625 443.292969 132.792969 438.957031 136.523438 C 435.621094 139.394531 431.738281 140.984375 427.289062 141.34375 C 422.683594 141.714844 418.527344 140.632812 414.714844 138.117188 C 413.695312 137.441406 412.792969 136.59375 411.832031 135.832031 C 411.421875 135.503906 411.390625 135.195312 411.792969 134.820312 C 412.222656 134.417969 412.609375 133.976562 413.058594 133.507812 C 419.226562 139.179688 426.203125 140.679688 433.671875 136.828125 C 439.828125 133.652344 443.289062 128.371094 443.410156 121.066406 C 443.414062 120.886719 443.402344 120.847656 443.390625 120.804688 C 443.390625 115.875 443.390625 110.945312 443.414062 105.867188 C 443.421875 105.625 443.410156 105.53125 443.394531 105.441406 Z M 443.394531 105.441406 "/>
<path style=" stroke:none;fill-rule:nonzero;fill:rgb(39.215686%,34.901961%,94.509804%);fill-opacity:1;" d="M 289.609375 100.273438 C 298.164062 100.273438 306.71875 100.273438 315.265625 100.273438 C 315.566406 96.714844 309.039062 90.375 303.546875 88.824219 C 295.097656 86.433594 287.160156 90.820312 283.230469 98.0625 C 279.261719 105.375 281.464844 114.496094 288.589844 119.898438 C 294.410156 124.316406 305.15625 125.058594 311.988281 117.28125 C 312.578125 117.835938 313.167969 118.390625 313.757812 118.945312 C 309.335938 124.035156 300.859375 128.144531 291.511719 124.433594 C 282.585938 120.894531 278.019531 112.257812 278.691406 104.316406 C 279.671875 92.699219 289.230469 86.007812 297.785156 85.609375 C 308.296875 85.121094 317.476562 93.128906 318.675781 102.785156 C 308.953125 102.785156 299.234375 102.785156 289.410156 102.785156 C 289.410156 102.03125 289.410156 101.277344 289.464844 100.421875 C 289.550781 100.308594 289.578125 100.289062 289.609375 100.273438 Z M 289.609375 100.273438 "/>
<path style=" stroke:none;fill-rule:nonzero;fill:rgb(39.215686%,34.901961%,94.509804%);fill-opacity:1;" d="M 493.9375 109.535156 C 493.9375 108.179688 493.902344 106.910156 493.945312 105.648438 C 494.140625 99.929688 491.695312 95.5 487.351562 91.984375 C 483.699219 89.023438 479.476562 87.777344 474.847656 88.1875 C 469.558594 88.65625 465.359375 91.21875 462.152344 95.429688 C 460.246094 97.933594 459.222656 100.757812 458.96875 103.917969 C 458.363281 111.433594 461.5 117.023438 467.722656 120.972656 C 470.929688 123.011719 474.53125 123.65625 478.285156 123.113281 C 479.824219 122.890625 481.324219 122.378906 482.84375 122.023438 C 483.023438 121.980469 483.355469 122.027344 483.417969 122.144531 C 483.710938 122.679688 483.96875 123.242188 484.164062 123.824219 C 484.210938 123.972656 484.023438 124.355469 483.886719 124.390625 C 482.011719 124.878906 480.140625 125.410156 478.242188 125.765625 C 475.074219 126.359375 472.015625 125.652344 469.117188 124.472656 C 464.171875 122.460938 460.402344 119.070312 458.066406 114.199219 C 457.0625 112.105469 456.570312 109.886719 456.351562 107.558594 C 455.714844 100.835938 458.078125 95.28125 462.890625 90.757812 C 466.484375 87.375 470.796875 85.652344 475.832031 85.636719 C 479.359375 85.621094 482.707031 86.125 485.796875 87.839844 C 491.589844 91.058594 495.347656 95.785156 496.34375 102.472656 C 496.527344 103.710938 496.578125 104.980469 496.582031 106.234375 C 496.605469 112.472656 496.59375 118.710938 496.59375 125.015625 C 495.730469 125.015625 494.894531 125.015625 493.9375 125.015625 C 493.9375 119.898438 493.9375 114.761719 493.9375 109.535156 Z M 493.9375 109.535156 "/>
<path style=" stroke:none;fill-rule:nonzero;fill:rgb(39.607843%,35.294118%,94.901961%);fill-opacity:1;" d="M 524.273438 104.210938 C 524.6875 97.109375 528.332031 91.953125 534.136719 88.246094 C 536.628906 86.652344 539.445312 85.859375 542.472656 85.628906 C 546.789062 85.300781 550.839844 85.90625 554.558594 88.164062 C 559.984375 91.453125 563.488281 96.117188 564.503906 102.480469 C 564.640625 103.34375 564.699219 104.230469 564.703125 105.105469 C 564.71875 111.433594 564.710938 117.761719 564.710938 124.089844 C 564.710938 124.382812 564.710938 124.671875 564.710938 125.082031 C 563.859375 125.082031 563.050781 125.082031 562.144531 125.03125 C 562.035156 124.953125 562.019531 124.925781 562.007812 124.894531 C 562.011719 118.125 562.296875 111.34375 561.949219 104.589844 C 561.574219 97.230469 557.511719 91.992188 550.773438 89.296875 C 543.929688 86.5625 537.628906 88.011719 532.257812 93.160156 C 529.515625 95.792969 527.753906 98.945312 527.144531 102.710938 C 527.007812 103.546875 526.933594 104.402344 526.929688 105.246094 C 526.914062 111.488281 526.921875 117.726562 526.921875 123.96875 C 526.921875 124.289062 526.921875 124.613281 526.921875 125.007812 C 526.027344 125.007812 525.164062 125.007812 524.171875 125.007812 C 524.171875 118.222656 524.171875 111.40625 524.210938 104.480469 C 524.277344 104.320312 524.285156 104.265625 524.273438 104.210938 Z M 524.273438 104.210938 "/>
<path style=" stroke:none;fill-rule:nonzero;fill:rgb(39.607843%,35.294118%,94.901961%);fill-opacity:1;" d="M 368.765625 103.179688 C 368.777344 104.9375 368.804688 106.695312 368.804688 108.453125 C 368.808594 113.882812 368.804688 119.308594 368.765625 124.839844 C 368.695312 124.976562 368.667969 125.015625 368.644531 125.054688 C 367.855469 125.054688 367.066406 125.054688 366.171875 125.054688 C 366.171875 124.714844 366.171875 124.402344 366.171875 124.089844 C 366.171875 118.144531 366.191406 112.199219 366.164062 106.253906 C 366.144531 102.601562 365.453125 99.113281 363.28125 96.066406 C 360.390625 92.003906 356.652344 89.1875 351.640625 88.332031 C 345.429688 87.269531 340.183594 89.167969 335.859375 93.664062 C 332.730469 96.914062 331.078125 100.816406 331.066406 105.359375 C 331.050781 111.570312 331.0625 117.78125 331.0625 123.992188 C 331.0625 124.316406 331.0625 124.636719 331.0625 125.019531 C 330.191406 125.019531 329.359375 125.019531 328.40625 125.019531 C 328.40625 124.726562 328.40625 124.414062 328.40625 124.105469 C 328.40625 117.714844 328.398438 111.328125 328.40625 104.941406 C 328.410156 100.664062 329.753906 96.832031 332.394531 93.5 C 335.5625 89.5 339.546875 86.671875 344.664062 85.828125 C 351.453125 84.707031 357.503906 86.269531 362.582031 91.105469 C 365.753906 94.121094 367.773438 97.75 368.605469 102.042969 C 368.65625 102.300781 368.632812 102.570312 368.652344 102.949219 C 368.679688 103.113281 368.714844 103.152344 368.765625 103.179688 Z M 368.765625 103.179688 "/>
<path style=" stroke:none;fill-rule:nonzero;fill:rgb(39.607843%,35.294118%,94.901961%);fill-opacity:1;" d="M 379.867188 105.980469 C 379.855469 105.6875 379.832031 105.394531 379.832031 105.101562 C 379.832031 93.804688 379.832031 82.507812 379.863281 71.105469 C 379.914062 70.953125 379.933594 70.90625 379.949219 70.863281 C 380.796875 70.863281 381.640625 70.863281 382.570312 70.863281 C 382.570312 75.988281 382.570312 81.058594 382.570312 86.1875 C 385.410156 86.1875 388.160156 86.1875 391.042969 86.1875 C 391.042969 87 391.042969 87.75 390.988281 88.601562 C 390.90625 88.726562 390.878906 88.75 390.855469 88.773438 C 388.125 88.773438 385.394531 88.773438 382.574219 88.773438 C 382.574219 89.167969 382.574219 89.484375 382.574219 89.800781 C 382.574219 94.949219 382.582031 100.097656 382.574219 105.25 C 382.566406 109.105469 383.511719 112.664062 385.925781 115.722656 C 388.933594 119.53125 392.640625 122.253906 397.578125 122.96875 C 398.398438 123.089844 399.222656 123.191406 400.066406 123.304688 C 400.066406 124.152344 400.066406 124.914062 400.066406 125.671875 C 391.757812 126.476562 380.289062 118.742188 379.9375 106.234375 C 379.941406 106.058594 379.917969 106.011719 379.867188 105.980469 Z M 379.867188 105.980469 "/>
<path style=" stroke:none;fill-rule:nonzero;fill:rgb(39.215686%,35.294118%,94.901961%);fill-opacity:1;" d="M 253.929688 104.214844 C 254.175781 97.832031 257.191406 92.964844 262.226562 89.269531 C 265.042969 87.203125 268.179688 85.847656 271.738281 85.671875 C 272.113281 85.652344 272.476562 85.539062 272.851562 85.507812 C 273.199219 85.480469 273.550781 85.503906 273.980469 85.503906 C 273.980469 86.304688 273.980469 87.105469 273.980469 87.808594 C 272.09375 88.175781 270.128906 88.289062 268.371094 88.957031 C 261.910156 91.410156 257.867188 96.027344 256.617188 102.921875 C 256.441406 103.898438 256.402344 104.90625 256.398438 105.902344 C 256.382812 111.9375 256.390625 117.972656 256.390625 124.007812 C 256.390625 124.328125 256.390625 124.648438 256.390625 125.023438 C 255.523438 125.023438 254.714844 125.023438 253.792969 125.023438 C 253.792969 118.210938 253.792969 111.394531 253.832031 104.46875 C 253.910156 104.320312 253.929688 104.269531 253.929688 104.214844 Z M 253.929688 104.214844 "/>
<path style=" stroke:none;fill-rule:nonzero;fill:rgb(40%,35.294118%,95.686275%);fill-opacity:1;" d="M 511.765625 113.242188 C 511.765625 117.210938 511.765625 121.09375 511.765625 125.027344 C 510.871094 125.027344 510.03125 125.027344 509.128906 125.027344 C 509.128906 112.125 509.128906 99.222656 509.128906 86.265625 C 509.964844 86.265625 510.804688 86.265625 511.765625 86.265625 C 511.765625 95.222656 511.765625 104.1875 511.765625 113.242188 Z M 511.765625 113.242188 "/>
<path style=" stroke:none;fill-rule:nonzero;fill:rgb(40%,35.294118%,95.686275%);fill-opacity:1;" d="M 509.066406 77.203125 C 509.066406 75.0625 509.066406 73.007812 509.066406 70.898438 C 509.964844 70.898438 510.824219 70.898438 511.722656 70.898438 C 511.722656 73.808594 511.722656 76.695312 511.722656 79.632812 C 510.859375 79.632812 510.023438 79.632812 509.066406 79.632812 C 509.066406 78.847656 509.066406 78.070312 509.066406 77.203125 Z M 509.066406 77.203125 "/>
<path style=" stroke:none;fill-rule:nonzero;fill:rgb(2.745098%,2.745098%,9.019608%);fill-opacity:1;" d="M 128.777344 35.625 C 128.636719 35.660156 128.445312 35.667969 128.1875 35.660156 C 128.320312 35.628906 128.527344 35.613281 128.777344 35.625 Z M 128.777344 35.625 "/>
<path style=" stroke:none;fill-rule:nonzero;fill:rgb(16.078431%,15.294118%,46.27451%);fill-opacity:1;" d="M 443.367188 105.476562 C 443.410156 105.53125 443.421875 105.625 443.410156 105.789062 C 443.371094 105.742188 443.355469 105.625 443.367188 105.476562 Z M 443.367188 105.476562 "/>
<path style=" stroke:none;fill-rule:nonzero;fill:rgb(31.764706%,28.627451%,77.647059%);fill-opacity:1;" d="M 368.6875 125.058594 C 368.667969 125.015625 368.695312 124.976562 368.757812 124.921875 C 368.769531 124.953125 368.753906 125.003906 368.6875 125.058594 Z M 368.6875 125.058594 "/>
<path style=" stroke:none;fill-rule:nonzero;fill:rgb(16.078431%,15.294118%,46.27451%);fill-opacity:1;" d="M 443.363281 120.832031 C 443.402344 120.847656 443.414062 120.886719 443.414062 120.988281 C 443.378906 120.988281 443.359375 120.921875 443.363281 120.832031 Z M 443.363281 120.832031 "/>
<path style=" stroke:none;fill-rule:nonzero;fill:rgb(7.058824%,7.058824%,22.352941%);fill-opacity:1;" d="M 561.992188 124.921875 C 562.019531 124.925781 562.035156 124.953125 562.0625 125.023438 C 562.042969 125.027344 562.011719 124.988281 561.992188 124.921875 Z M 561.992188 124.921875 "/>
<path style=" stroke:none;fill-rule:nonzero;fill:rgb(20%,20%,54.901961%);fill-opacity:1;" d="M 379.855469 106.019531 C 379.917969 106.011719 379.941406 106.058594 379.933594 106.15625 C 379.875 106.160156 379.847656 106.117188 379.855469 106.019531 Z M 379.855469 106.019531 "/>
<path style=" stroke:none;fill-rule:nonzero;fill:rgb(25.490196%,21.960784%,61.176471%);fill-opacity:1;" d="M 524.238281 104.238281 C 524.285156 104.265625 524.277344 104.320312 524.214844 104.398438 C 524.191406 104.371094 524.195312 104.316406 524.238281 104.238281 Z M 524.238281 104.238281 "/>
<path style=" stroke:none;fill-rule:nonzero;fill:rgb(31.764706%,28.627451%,77.647059%);fill-opacity:1;" d="M 253.890625 104.234375 C 253.929688 104.269531 253.910156 104.320312 253.84375 104.386719 C 253.828125 104.359375 253.839844 104.308594 253.890625 104.234375 Z M 253.890625 104.234375 "/>
<path style=" stroke:none;fill-rule:nonzero;fill:rgb(31.764706%,28.627451%,77.647059%);fill-opacity:1;" d="M 368.769531 103.136719 C 368.714844 103.152344 368.679688 103.113281 368.65625 103.023438 C 368.707031 103.003906 368.746094 103.042969 368.769531 103.136719 Z M 368.769531 103.136719 "/>
<path style=" stroke:none;fill-rule:nonzero;fill:rgb(16.078431%,14.117647%,37.254902%);fill-opacity:1;" d="M 289.582031 100.25 C 289.578125 100.289062 289.550781 100.308594 289.472656 100.34375 C 289.46875 100.316406 289.511719 100.273438 289.582031 100.25 Z M 289.582031 100.25 "/>
<path style=" stroke:none;fill-rule:nonzero;fill:rgb(16.078431%,15.294118%,46.27451%);fill-opacity:1;" d="M 390.886719 88.789062 C 390.878906 88.75 390.90625 88.726562 390.980469 88.679688 C 390.992188 88.710938 390.953125 88.761719 390.886719 88.789062 Z M 390.886719 88.789062 "/>
<path style=" stroke:none;fill-rule:nonzero;fill:rgb(20%,20%,54.901961%);fill-opacity:1;" d="M 379.90625 70.871094 C 379.933594 70.90625 379.914062 70.953125 379.863281 71.023438 C 379.84375 70.992188 379.851562 70.9375 379.90625 70.871094 Z M 379.90625 70.871094 "/>
<path style=" stroke:none;fill-rule:nonzero;fill:rgb(2.745098%,2.745098%,9.019608%);fill-opacity:1;" d="M 129.335938 35.640625 C 129.324219 35.664062 129.292969 35.667969 129.21875 35.664062 C 129.214844 35.617188 129.261719 35.609375 129.335938 35.640625 Z M 129.335938 35.640625 "/>
</g>
</svg>
