<svg version="1.1" id="Layer_1" xmlns="http://www.w3.org/2000/svg" xmlns:xlink="http://www.w3.org/1999/xlink"
	 x="0px" y="0px"
	 width="100%" viewBox="0 0 3400 2000" enable-background="new 0 0 3400 1200" xml:space="preserve">
<path fill="#000000" opacity="1.000000" stroke="none"
	d="
M2367.000000,1201.000000
	C1578.000000,1201.000000 789.500000,1201.000000 1.000000,1201.000000
	C1.000000,801.000000 1.000000,401.000000 1.000000,1.000000
	C1134.333374,1.000000 2267.666748,1.000000 3401.000000,1.000000
	C3401.000000,401.000000 3401.000000,801.000000 3401.000000,1201.000000
	C3056.500000,1201.000000 2712.000000,1201.000000 2367.000000,1201.000000
M1438.496948,590.125610
	C1438.428223,590.420776 1438.359497,590.716003 1438.161011,591.939026
	C1438.161011,630.531677 1438.161011,669.124390 1438.161011,707.673828
	C1443.388184,707.673828 1447.962524,707.673828 1452.879517,707.673828
	C1452.879517,705.547913 1452.879517,703.740112 1452.879517,701.932251
	C1452.879517,667.769165 1452.825073,633.605896 1452.933838,599.443176
	C1452.951660,593.816467 1453.171021,588.098816 1454.171021,582.581604
	C1461.244629,543.554626 1484.153320,517.408630 1520.771362,503.530823
	C1530.728394,499.757202 1541.872070,499.114838 1552.555176,497.018860
	C1552.555176,493.053162 1552.555176,488.525208 1552.555176,483.977020
	C1550.131592,483.977020 1548.130615,483.848846 1546.153931,484.011871
	C1544.044800,484.185791 1541.967896,484.829041 1539.860474,484.933716
	C1519.692383,485.935547 1501.904297,493.610138 1485.943359,505.306305
	C1457.420410,526.207764 1440.321045,553.765869 1438.496948,590.125610
M2152.534668,401.205811
	C2152.493408,401.523254 2152.452393,401.840729 2152.391602,403.074982
	C2152.387939,467.019592 2152.382568,530.964233 2152.389160,594.908813
	C2152.389404,596.570496 2152.518066,598.232178 2152.425537,600.327942
	C2152.469727,600.656067 2152.628662,600.913574 2152.961670,602.004395
	C2154.967773,672.132812 2219.954102,715.899414 2267.035400,711.343384
	C2267.035400,707.051147 2267.035400,702.753967 2267.035400,697.947021
	C2262.269287,697.309387 2257.595947,696.727722 2252.936035,696.053650
	C2224.958008,692.006958 2203.955811,676.584106 2186.923828,655.038818
	C2173.235107,637.722534 2167.869385,617.577515 2167.911377,595.747437
	C2167.967529,566.600159 2167.925049,537.452698 2167.925049,508.305359
	C2167.925049,506.518463 2167.925049,504.731567 2167.925049,502.483398
	C2183.909180,502.483398 2199.375732,502.483398 2215.195801,502.697235
	C2215.408447,502.417816 2215.621094,502.138367 2215.903809,500.948059
	C2215.903809,496.697174 2215.903809,492.446289 2215.903809,487.863922
	C2199.583008,487.863922 2183.988525,487.863922 2167.902832,487.863922
	C2167.902832,458.817108 2167.902832,430.112640 2167.902832,401.103424
	C2162.626953,401.103424 2157.841064,401.103424 2152.534668,401.205811
M2089.884521,706.050049
	C2089.891846,675.331238 2089.919434,644.612366 2089.895508,613.893555
	C2089.887695,603.937683 2089.744629,593.981995 2089.709473,583.558472
	C2089.565918,583.260681 2089.340576,583.050964 2088.989990,582.072205
	C2088.925781,580.581543 2089.051025,579.054077 2088.769531,577.605652
	C2084.049072,553.303650 2072.614990,532.767883 2054.640137,515.683411
	C2025.845215,488.314850 1991.559448,479.469238 1953.101562,485.811218
	C1924.108643,490.592316 1901.526245,506.604950 1883.568115,529.235291
	C1868.600464,548.097046 1860.984131,569.807068 1860.964355,594.007568
	C1860.934937,630.163147 1860.958862,666.318665 1860.959961,702.474243
	C1860.960083,704.233704 1860.959961,705.993225 1860.959961,707.654053
	C1866.360229,707.654053 1871.091309,707.654053 1876.026367,707.654053
	C1876.026367,705.488403 1876.026367,703.668396 1876.026367,701.848389
	C1876.027100,666.692505 1875.964600,631.536560 1876.049316,596.380859
	C1876.111328,570.664368 1885.477173,548.565125 1903.197632,530.172729
	C1927.707397,504.733948 1957.434937,493.973907 1992.628296,499.982025
	C2021.035278,504.831512 2042.203125,520.781799 2058.599365,543.762817
	C2070.905029,561.010864 2074.827637,580.752686 2074.927246,601.430664
	C2075.089844,635.086243 2074.970947,668.743164 2074.970947,702.399475
	C2074.970947,704.168396 2074.971191,705.937317 2074.971191,707.861145
	C2080.039307,707.861145 2084.508057,707.861145 2089.503906,707.880127
	C2089.596436,707.580017 2089.688721,707.279907 2089.884521,706.050049
M3186.022461,708.001038
	C3190.615479,708.001038 3195.208496,708.001038 3200.025635,708.001038
	C3200.025635,705.694153 3200.025635,704.046997 3200.025635,702.399780
	C3200.025146,666.578430 3200.067383,630.756897 3199.975098,594.935791
	C3199.962402,589.981934 3199.634766,584.973267 3198.853027,580.085815
	C3193.090088,544.052368 3173.234375,517.651245 3142.500977,499.034607
	C3121.429688,486.270691 3098.481689,482.839600 3074.014893,484.690491
	C3056.846436,485.989288 3040.895020,490.495361 3026.776367,499.503937
	C2993.871582,520.499512 2973.233154,549.681213 2970.473145,590.165039
	C2970.443848,590.475403 2970.414307,590.785828 2970.312744,592.018616
	C2970.312744,630.600342 2970.312744,669.182068 2970.312744,707.587280
	C2975.928467,707.587280 2980.823730,707.587280 2985.887207,707.587280
	C2985.887207,705.348694 2985.887207,703.524109 2985.887207,701.699463
	C2985.887207,666.377441 2985.841553,631.055298 2985.940186,595.733521
	C2985.953613,590.946899 2986.380859,586.111755 2987.148438,581.385498
	C2990.610352,560.078064 3000.578125,542.214050 3016.121582,527.328247
	C3046.559814,498.177826 3082.269775,489.969482 3121.041016,505.452484
	C3159.232910,520.704102 3182.250732,550.357300 3184.386230,592.022217
	C3186.344971,630.239441 3184.742920,668.639160 3184.546387,707.252625
	C3184.731689,707.482300 3184.916992,707.711975 3186.022461,708.001038
M1640.798462,567.333984
	C1640.556274,567.583374 1640.314087,567.832764 1639.980957,569.000488
	C1639.980957,573.267395 1639.980957,577.534302 1639.980957,581.796387
	C1695.668945,581.796387 1750.737183,581.796387 1805.839478,581.796387
	C1799.027710,527.151489 1747.018799,481.817566 1687.454224,484.583832
	C1638.979736,486.835052 1584.799927,524.718323 1579.249023,590.470703
	C1575.453735,635.427185 1601.314209,684.300964 1651.901978,704.351440
	C1704.880737,725.349548 1752.906982,702.089966 1777.956299,673.284912
	C1774.617310,670.139587 1771.280396,666.996277 1767.938110,663.847839
	C1729.208740,707.888123 1668.324829,703.673950 1635.332764,678.676086
	C1594.976196,648.098267 1582.492065,596.466675 1604.969360,555.079712
	C1627.232788,514.086426 1672.221924,489.249268 1720.090332,502.768524
	C1751.226318,511.562042 1788.219116,547.439880 1786.512573,567.586365
	C1738.062500,567.586365 1689.591309,567.586365 1640.798462,567.333984
M2512.247559,684.107300
	C2512.365234,684.468262 2512.483154,684.829224 2512.588867,686.084412
	C2511.975830,726.624207 2492.365967,756.516113 2457.473633,774.490662
	C2415.158691,796.289246 2375.617676,787.814941 2340.667969,755.701965
	C2338.126221,758.351746 2335.919922,760.857422 2333.490723,763.124634
	C2331.209473,765.253540 2331.388672,767.001099 2333.721436,768.853577
	C2339.160645,773.173035 2344.274902,777.977661 2350.048584,781.786072
	C2371.651611,796.035461 2395.207520,802.168152 2421.313232,800.064758
	C2446.524658,798.033508 2468.524170,789.024902 2487.433350,772.765869
	C2511.985352,751.655212 2526.046387,724.618591 2526.767578,692.163147
	C2527.551025,656.912292 2527.273193,621.587219 2525.912109,586.354187
	C2524.643799,553.517273 2508.071045,527.855652 2482.745850,508.019012
	C2450.304199,482.608307 2413.290039,477.681488 2375.316406,490.869873
	C2319.587158,510.224945 2293.187256,558.792603 2299.194824,612.139954
	C2302.367920,640.317322 2315.649170,663.795776 2336.290527,683.232178
	C2354.455566,700.336975 2376.368164,709.173401 2400.701416,711.783264
	C2410.453857,712.829285 2420.603271,711.860901 2430.382568,710.474854
	C2439.241943,709.219177 2447.843750,706.148315 2457.106689,703.735168
	C2454.786377,698.608826 2452.856201,694.344543 2450.945068,690.122253
	C2426.761963,698.159241 2414.513428,698.901367 2396.821777,695.999695
	C2359.057373,689.805725 2334.055664,667.543823 2319.366211,633.014893
	C2313.018555,618.093262 2311.079834,602.021057 2313.360107,586.221069
	C2316.200439,566.542908 2324.375000,548.863342 2337.598145,533.406189
	C2354.970459,513.098572 2376.634033,501.476074 2402.983154,499.148041
	C2423.507812,497.334717 2443.166016,501.098999 2461.116943,511.917206
	C2493.146240,531.220093 2512.191650,558.361267 2512.245117,597.233276
	C2512.342285,597.884399 2512.439453,598.535522 2512.546387,600.099976
	C2512.543213,628.003052 2512.540039,655.906128 2512.247559,684.107300
M725.069214,201.890488
	C550.804626,201.890488 376.539978,201.890488 202.242737,201.890488
	C202.242737,253.576935 202.242737,304.638519 202.242737,356.003815
	C204.529984,356.003815 206.504074,356.003815 208.478165,356.003815
	C377.642334,356.003601 546.806641,355.927612 715.970459,356.163635
	C728.008118,356.180420 740.180908,357.725677 752.051270,359.880096
	C781.485229,365.222351 805.482056,379.816010 823.137695,404.251434
	C835.061829,420.754333 843.243042,438.944519 844.791748,459.348389
	C845.999084,475.255432 843.911377,491.052948 837.939148,506.035370
	C829.641479,526.851746 817.529907,545.051147 799.915466,559.200134
	C779.030457,575.976135 754.463989,582.832458 728.328491,582.876160
	C554.998169,583.166077 381.667145,583.026855 208.336349,583.027222
	C206.251434,583.027222 204.166519,583.027161 202.162674,583.027161
	C202.162674,634.730713 202.162674,685.678772 202.162674,737.108521
	C204.343155,737.108521 206.295792,737.108521 208.248428,737.108521
	C297.747101,737.108521 387.245789,737.117493 476.744476,737.103455
	C506.606354,737.098816 536.461426,736.784302 566.190247,740.625610
	C591.732300,743.925842 616.403870,750.208191 639.949951,760.690002
	C658.820984,769.090515 675.773804,780.445862 691.587952,793.722778
	C715.736572,813.997009 735.858521,837.601257 750.848145,865.301392
	C770.589417,901.782227 779.376892,941.141541 779.859741,982.471191
	C779.927063,988.234741 779.869019,993.999817 779.869019,999.779297
	C834.188538,999.779297 887.783325,999.779297 942.072388,999.779297
	C941.354736,893.385986 915.881531,796.122253 841.698669,715.734863
	C872.831482,704.180664 898.665527,685.313538 921.877747,662.951111
	C933.630188,651.628967 943.998352,638.762817 954.198669,625.962280
	C968.691833,607.774475 979.897522,587.526306 988.994568,566.121460
	C1001.290527,537.190002 1006.225281,506.869232 1005.978882,475.598907
	C1005.912292,467.142029 1005.657471,458.673004 1005.079468,450.237579
	C1004.470215,441.343567 1003.877197,432.396820 1002.382263,423.625641
	C999.131653,404.553741 993.395203,386.164154 986.234802,368.174103
	C976.359131,343.362244 964.075317,319.933136 945.541016,300.505524
	C932.585938,286.926117 918.985718,273.863983 904.801697,261.577423
	C881.119629,241.063477 853.499023,227.163147 823.923889,217.328506
	C794.465515,207.532715 763.915649,203.467834 732.779358,201.659866
	C732.489441,201.559830 732.227356,201.608948 731.332336,201.920349
	C730.888977,201.880280 730.445557,201.840195 729.472412,201.496964
	C728.315002,201.589493 727.157593,201.682007 725.069214,201.890488
M2798.979248,620.500000
	C2798.979248,649.587708 2798.979248,678.675415 2798.979248,707.641724
	C2804.397949,707.641724 2809.130371,707.641724 2814.031738,707.641724
	C2814.031738,671.958496 2814.103760,636.638123 2813.970947,601.318542
	C2813.944336,594.221375 2813.647461,587.051331 2812.605957,580.044128
	C2806.979736,542.190369 2785.671143,515.417969 2752.843018,497.208313
	C2735.335693,487.497009 2716.378418,484.656158 2696.382324,484.727631
	C2667.848877,484.829681 2643.420654,494.573395 2623.036133,513.721680
	C2595.771240,539.332886 2582.378418,570.768005 2585.990479,608.830017
	C2587.239990,621.996765 2590.031738,634.553284 2595.719238,646.409546
	C2608.945312,673.980591 2630.308105,693.172913 2658.340332,704.566956
	C2674.757568,711.239929 2692.091064,715.238647 2710.034912,711.878906
	C2720.805176,709.862305 2731.397217,706.870911 2742.013672,704.103699
	C2742.809570,703.896179 2743.870117,701.728821 2743.586182,700.881287
	C2742.489258,697.604370 2741.039307,694.415466 2739.376953,691.382324
	C2739.019531,690.729858 2737.136230,690.457886 2736.115967,690.696533
	C2727.493408,692.713013 2719.012451,695.611633 2710.290771,696.873230
	C2689.011230,699.951538 2668.606201,696.283081 2650.418701,684.754761
	C2615.163086,662.407837 2597.390137,630.762146 2600.818604,588.204346
	C2602.257812,570.337524 2608.052979,554.348755 2618.870361,540.157654
	C2637.036377,516.325256 2660.838623,501.825134 2690.804688,499.171021
	C2717.038818,496.847473 2740.951416,503.907593 2761.659424,520.661133
	C2786.266357,540.568848 2800.130127,565.639771 2799.015381,598.003418
	C2798.769043,605.160889 2798.979248,612.334045 2798.979248,620.500000
M2900.001465,640.500000
	C2900.001465,589.746399 2900.001465,538.992798 2900.001465,488.290039
	C2894.557373,488.290039 2889.797852,488.290039 2885.066650,488.290039
	C2885.066650,561.628113 2885.066650,634.674927 2885.066650,707.702942
	C2890.183838,707.702942 2894.929443,707.702942 2900.001465,707.702942
	C2900.001465,685.438232 2900.001465,663.469116 2900.001465,640.500000
M2884.699951,437.493713
	C2884.699951,441.903778 2884.699951,446.313812 2884.699951,450.750977
	C2890.138428,450.750977 2894.873779,450.750977 2899.771484,450.750977
	C2899.771484,434.134827 2899.771484,417.780334 2899.771484,401.309906
	C2894.666016,401.309906 2889.795898,401.309906 2884.699951,401.309906
	C2884.699951,413.261536 2884.699951,424.878937 2884.699951,437.493713
z"/>
<path fill="#655AF3" opacity="1.000000" stroke="none"
	d="
M733.007751,201.827438
	C763.915649,203.467834 794.465515,207.532715 823.923889,217.328506
	C853.499023,227.163147 881.119629,241.063477 904.801697,261.577423
	C918.985718,273.863983 932.585938,286.926117 945.541016,300.505524
	C964.075317,319.933136 976.359131,343.362244 986.234802,368.174103
	C993.395203,386.164154 999.131653,404.553741 1002.382263,423.625641
	C1003.877197,432.396820 1004.470215,441.343567 1005.079468,450.237579
	C1005.657471,458.673004 1005.912292,467.142029 1005.978882,475.598907
	C1006.225281,506.869232 1001.290527,537.190002 988.994568,566.121460
	C979.897522,587.526306 968.691833,607.774475 954.198669,625.962280
	C943.998352,638.762817 933.630188,651.628967 921.877747,662.951111
	C898.665527,685.313538 872.831482,704.180664 841.698669,715.734863
	C915.881531,796.122253 941.354736,893.385986 942.072388,999.779297
	C887.783325,999.779297 834.188538,999.779297 779.869019,999.779297
	C779.869019,993.999817 779.927063,988.234741 779.859741,982.471191
	C779.376892,941.141541 770.589417,901.782227 750.848145,865.301392
	C735.858521,837.601257 715.736572,813.997009 691.587952,793.722778
	C675.773804,780.445862 658.820984,769.090515 639.949951,760.690002
	C616.403870,750.208191 591.732300,743.925842 566.190247,740.625610
	C536.461426,736.784302 506.606354,737.098816 476.744476,737.103455
	C387.245789,737.117493 297.747101,737.108521 208.248428,737.108521
	C206.295792,737.108521 204.343155,737.108521 202.162674,737.108521
	C202.162674,685.678772 202.162674,634.730713 202.162674,583.027161
	C204.166519,583.027161 206.251434,583.027222 208.336349,583.027222
	C381.667145,583.026855 554.998169,583.166077 728.328491,582.876160
	C754.463989,582.832458 779.030457,575.976135 799.915466,559.200134
	C817.529907,545.051147 829.641479,526.851746 837.939148,506.035370
	C843.911377,491.052948 845.999084,475.255432 844.791748,459.348389
	C843.243042,438.944519 835.061829,420.754333 823.137695,404.251434
	C805.482056,379.816010 781.485229,365.222351 752.051270,359.880096
	C740.180908,357.725677 728.008118,356.180420 715.970459,356.163635
	C546.806641,355.927612 377.642334,356.003601 208.478165,356.003815
	C206.504074,356.003815 204.529984,356.003815 202.242737,356.003815
	C202.242737,304.638519 202.242737,253.576935 202.242737,201.890488
	C376.539978,201.890488 550.804626,201.890488 725.929443,201.915833
	C727.860535,201.894150 728.931335,201.847137 730.002197,201.800125
	C730.445557,201.840195 730.888977,201.880280 731.915161,201.927856
	C732.667908,201.899399 732.837830,201.863419 733.007751,201.827438
z"/>
<path fill="#6459F1" opacity="1.000000" stroke="none"
	d="
M2512.573730,596.828064
	C2512.191650,558.361267 2493.146240,531.220093 2461.116943,511.917206
	C2443.166016,501.098999 2423.507812,497.334717 2402.983154,499.148041
	C2376.634033,501.476074 2354.970459,513.098572 2337.598145,533.406189
	C2324.375000,548.863342 2316.200439,566.542908 2313.360107,586.221069
	C2311.079834,602.021057 2313.018555,618.093262 2319.366211,633.014893
	C2334.055664,667.543823 2359.057373,689.805725 2396.821777,695.999695
	C2414.513428,698.901367 2426.761963,698.159241 2450.945068,690.122253
	C2452.856201,694.344543 2454.786377,698.608826 2457.106689,703.735168
	C2447.843750,706.148315 2439.241943,709.219177 2430.382568,710.474854
	C2420.603271,711.860901 2410.453857,712.829285 2400.701416,711.783264
	C2376.368164,709.173401 2354.455566,700.336975 2336.290527,683.232178
	C2315.649170,663.795776 2302.367920,640.317322 2299.194824,612.139954
	C2293.187256,558.792603 2319.587158,510.224945 2375.316406,490.869873
	C2413.290039,477.681488 2450.304199,482.608307 2482.745850,508.019012
	C2508.071045,527.855652 2524.643799,553.517273 2525.912109,586.354187
	C2527.273193,621.587219 2527.551025,656.912292 2526.767578,692.163147
	C2526.046387,724.618591 2511.985352,751.655212 2487.433350,772.765869
	C2468.524170,789.024902 2446.524658,798.033508 2421.313232,800.064758
	C2395.207520,802.168152 2371.651611,796.035461 2350.048584,781.786072
	C2344.274902,777.977661 2339.160645,773.173035 2333.721436,768.853577
	C2331.388672,767.001099 2331.209473,765.253540 2333.490723,763.124634
	C2335.919922,760.857422 2338.126221,758.351746 2340.667969,755.701965
	C2375.617676,787.814941 2415.158691,796.289246 2457.473633,774.490662
	C2492.365967,756.516113 2511.975830,726.624207 2512.663330,685.288025
	C2512.670654,684.264099 2512.603760,684.036621 2512.536865,683.809204
	C2512.540039,655.906128 2512.543213,628.003052 2512.670898,599.258179
	C2512.721436,597.886963 2512.647461,597.357544 2512.573730,596.828064
z"/>
<path fill="#6459F1" opacity="1.000000" stroke="none"
	d="
M1641.120239,567.586365
	C1689.591309,567.586365 1738.062500,567.586365 1786.512573,567.586365
	C1788.219116,547.439880 1751.226318,511.562042 1720.090332,502.768524
	C1672.221924,489.249268 1627.232788,514.086426 1604.969360,555.079712
	C1582.492065,596.466675 1594.976196,648.098267 1635.332764,678.676086
	C1668.324829,703.673950 1729.208740,707.888123 1767.938110,663.847839
	C1771.280396,666.996277 1774.617310,670.139587 1777.956299,673.284912
	C1752.906982,702.089966 1704.880737,725.349548 1651.901978,704.351440
	C1601.314209,684.300964 1575.453735,635.427185 1579.249023,590.470703
	C1584.799927,524.718323 1638.979736,486.835052 1687.454224,484.583832
	C1747.018799,481.817566 1799.027710,527.151489 1805.839478,581.796387
	C1750.737183,581.796387 1695.668945,581.796387 1639.980957,581.796387
	C1639.980957,577.534302 1639.980957,573.267395 1640.297119,568.435608
	C1640.782227,567.776001 1640.951172,567.681213 1641.120239,567.586365
z"/>
<path fill="#6459F1" opacity="1.000000" stroke="none"
	d="
M2798.979248,620.000000
	C2798.979248,612.334045 2798.769043,605.160889 2799.015381,598.003418
	C2800.130127,565.639771 2786.266357,540.568848 2761.659424,520.661133
	C2740.951416,503.907593 2717.038818,496.847473 2690.804688,499.171021
	C2660.838623,501.825134 2637.036377,516.325256 2618.870361,540.157654
	C2608.052979,554.348755 2602.257812,570.337524 2600.818604,588.204346
	C2597.390137,630.762146 2615.163086,662.407837 2650.418701,684.754761
	C2668.606201,696.283081 2689.011230,699.951538 2710.290771,696.873230
	C2719.012451,695.611633 2727.493408,692.713013 2736.115967,690.696533
	C2737.136230,690.457886 2739.019531,690.729858 2739.376953,691.382324
	C2741.039307,694.415466 2742.489258,697.604370 2743.586182,700.881287
	C2743.870117,701.728821 2742.809570,703.896179 2742.013672,704.103699
	C2731.397217,706.870911 2720.805176,709.862305 2710.034912,711.878906
	C2692.091064,715.238647 2674.757568,711.239929 2658.340332,704.566956
	C2630.308105,693.172913 2608.945312,673.980591 2595.719238,646.409546
	C2590.031738,634.553284 2587.239990,621.996765 2585.990479,608.830017
	C2582.378418,570.768005 2595.771240,539.332886 2623.036133,513.721680
	C2643.420654,494.573395 2667.848877,484.829681 2696.382324,484.727631
	C2716.378418,484.656158 2735.335693,487.497009 2752.843018,497.208313
	C2785.671143,515.417969 2806.979736,542.190369 2812.605957,580.044128
	C2813.647461,587.051331 2813.944336,594.221375 2813.970947,601.318542
	C2814.103760,636.638123 2814.031738,671.958496 2814.031738,707.641724
	C2809.130371,707.641724 2804.397949,707.641724 2798.979248,707.641724
	C2798.979248,678.675415 2798.979248,649.587708 2798.979248,620.000000
z"/>
<path fill="#655AF2" opacity="1.000000" stroke="none"
	d="
M2970.887939,589.869812
	C2973.233154,549.681213 2993.871582,520.499512 3026.776367,499.503937
	C3040.895020,490.495361 3056.846436,485.989288 3074.014893,484.690491
	C3098.481689,482.839600 3121.429688,486.270691 3142.500977,499.034607
	C3173.234375,517.651245 3193.090088,544.052368 3198.853027,580.085815
	C3199.634766,584.973267 3199.962402,589.981934 3199.975098,594.935791
	C3200.067383,630.756897 3200.025146,666.578430 3200.025635,702.399780
	C3200.025635,704.046997 3200.025635,705.694153 3200.025635,708.001038
	C3195.208496,708.001038 3190.615479,708.001038 3185.480225,707.719238
	C3184.861816,707.277771 3184.785645,707.118103 3184.709961,706.958496
	C3184.742920,668.639160 3186.344971,630.239441 3184.386230,592.022217
	C3182.250732,550.357300 3159.232910,520.704102 3121.041016,505.452484
	C3082.269775,489.969482 3046.559814,498.177826 3016.121582,527.328247
	C3000.578125,542.214050 2990.610352,560.078064 2987.148438,581.385498
	C2986.380859,586.111755 2985.953613,590.946899 2985.940186,595.733521
	C2985.841553,631.055298 2985.887207,666.377441 2985.887207,701.699463
	C2985.887207,703.524109 2985.887207,705.348694 2985.887207,707.587280
	C2980.823730,707.587280 2975.928467,707.587280 2970.312744,707.587280
	C2970.312744,669.182068 2970.312744,630.600342 2970.518066,591.396362
	C2970.894775,590.493835 2970.949463,590.192383 2970.887939,589.869812
z"/>
<path fill="#655AF2" opacity="1.000000" stroke="none"
	d="
M2089.663818,584.026184
	C2089.744629,593.981995 2089.887695,603.937683 2089.895508,613.893555
	C2089.919434,644.612366 2089.891846,675.331238 2089.672119,706.635437
	C2089.270752,707.413147 2089.109863,707.626587 2088.976807,707.861145
	C2084.508057,707.861145 2080.039307,707.861145 2074.971191,707.861145
	C2074.971191,705.937317 2074.970947,704.168396 2074.970947,702.399475
	C2074.970947,668.743164 2075.089844,635.086243 2074.927246,601.430664
	C2074.827637,580.752686 2070.905029,561.010864 2058.599365,543.762817
	C2042.203125,520.781799 2021.035278,504.831512 1992.628296,499.982025
	C1957.434937,493.973907 1927.707397,504.733948 1903.197632,530.172729
	C1885.477173,548.565125 1876.111328,570.664368 1876.049316,596.380859
	C1875.964600,631.536560 1876.027100,666.692505 1876.026367,701.848389
	C1876.026367,703.668396 1876.026367,705.488403 1876.026367,707.654053
	C1871.091309,707.654053 1866.360229,707.654053 1860.959961,707.654053
	C1860.959961,705.993225 1860.960083,704.233704 1860.959961,702.474243
	C1860.958862,666.318665 1860.934937,630.163147 1860.964355,594.007568
	C1860.984131,569.807068 1868.600464,548.097046 1883.568115,529.235291
	C1901.526245,506.604950 1924.108643,490.592316 1953.101562,485.811218
	C1991.559448,479.469238 2025.845215,488.314850 2054.640137,515.683411
	C2072.614990,532.767883 2084.049072,553.303650 2088.769531,577.605652
	C2089.051025,579.054077 2088.925781,580.581543 2089.038818,582.721924
	C2089.189209,583.669434 2089.381348,583.887573 2089.663818,584.026184
z"/>
<path fill="#655AF2" opacity="1.000000" stroke="none"
	d="
M2152.586914,599.893860
	C2152.518066,598.232178 2152.389404,596.570496 2152.389160,594.908813
	C2152.382568,530.964233 2152.387939,467.019592 2152.558350,402.476166
	C2152.838867,401.620972 2152.948975,401.362976 2153.055420,401.103424
	C2157.841064,401.103424 2162.626953,401.103424 2167.902832,401.103424
	C2167.902832,430.112640 2167.902832,458.817108 2167.902832,487.863922
	C2183.988525,487.863922 2199.583008,487.863922 2215.903809,487.863922
	C2215.903809,492.446289 2215.903809,496.697174 2215.593262,501.515686
	C2215.135742,502.216675 2214.988770,502.350037 2214.842041,502.483398
	C2199.375732,502.483398 2183.909180,502.483398 2167.925049,502.483398
	C2167.925049,504.731567 2167.925049,506.518463 2167.925049,508.305359
	C2167.925049,537.452698 2167.967529,566.600159 2167.911377,595.747437
	C2167.869385,617.577515 2173.235107,637.722534 2186.923828,655.038818
	C2203.955811,676.584106 2224.958008,692.006958 2252.936035,696.053650
	C2257.595947,696.727722 2262.269287,697.309387 2267.035400,697.947021
	C2267.035400,702.753967 2267.035400,707.051147 2267.035400,711.343384
	C2219.954102,715.899414 2154.967773,672.132812 2152.976074,601.331848
	C2152.992432,600.332092 2152.857910,600.076965 2152.586914,599.893860
z"/>
<path fill="#645AF2" opacity="1.000000" stroke="none"
	d="
M1438.944214,589.901428
	C1440.321045,553.765869 1457.420410,526.207764 1485.943359,505.306305
	C1501.904297,493.610138 1519.692383,485.935547 1539.860474,484.933716
	C1541.967896,484.829041 1544.044800,484.185791 1546.153931,484.011871
	C1548.130615,483.848846 1550.131592,483.977020 1552.555176,483.977020
	C1552.555176,488.525208 1552.555176,493.053162 1552.555176,497.018860
	C1541.872070,499.114838 1530.728394,499.757202 1520.771362,503.530823
	C1484.153320,517.408630 1461.244629,543.554626 1454.171021,582.581604
	C1453.171021,588.098816 1452.951660,593.816467 1452.933838,599.443176
	C1452.825073,633.605896 1452.879517,667.769165 1452.879517,701.932251
	C1452.879517,703.740112 1452.879517,705.547913 1452.879517,707.673828
	C1447.962524,707.673828 1443.388184,707.673828 1438.161011,707.673828
	C1438.161011,669.124390 1438.161011,630.531677 1438.392456,591.328125
	C1438.822632,590.481445 1438.929443,590.209473 1438.944214,589.901428
z"/>
<path fill="#665AF4" opacity="1.000000" stroke="none"
	d="
M2900.001465,641.000000
	C2900.001465,663.469116 2900.001465,685.438232 2900.001465,707.702942
	C2894.929443,707.702942 2890.183838,707.702942 2885.066650,707.702942
	C2885.066650,634.674927 2885.066650,561.628113 2885.066650,488.290039
	C2889.797852,488.290039 2894.557373,488.290039 2900.001465,488.290039
	C2900.001465,538.992798 2900.001465,589.746399 2900.001465,641.000000
z"/>
<path fill="#665AF4" opacity="1.000000" stroke="none"
	d="
M2884.699951,436.995026
	C2884.699951,424.878937 2884.699951,413.261536 2884.699951,401.309906
	C2889.795898,401.309906 2894.666016,401.309906 2899.771484,401.309906
	C2899.771484,417.780334 2899.771484,434.134827 2899.771484,450.750977
	C2894.873779,450.750977 2890.138428,450.750977 2884.699951,450.750977
	C2884.699951,446.313812 2884.699951,441.903778 2884.699951,436.995026
z"/>
<path fill="#070717" opacity="1.000000" stroke="none"
	d="
M729.737305,201.648544
	C728.931335,201.847137 727.860535,201.894150 726.394897,201.857849
	C727.157593,201.682007 728.315002,201.589493 729.737305,201.648544
z"/>
<path fill="#292776" opacity="1.000000" stroke="none"
	d="
M2512.409424,597.030640
	C2512.647461,597.357544 2512.721436,597.886963 2512.666016,598.801514
	C2512.439453,598.535522 2512.342285,597.884399 2512.409424,597.030640
z"/>
<path fill="#5149C6" opacity="1.000000" stroke="none"
	d="
M2089.240234,707.870605
	C2089.109863,707.626587 2089.270752,707.413147 2089.620361,707.100281
	C2089.688721,707.279907 2089.596436,707.580017 2089.240234,707.870605
z"/>
<path fill="#292776" opacity="1.000000" stroke="none"
	d="
M2512.392090,683.958252
	C2512.603760,684.036621 2512.670654,684.264099 2512.669434,684.840942
	C2512.483154,684.829224 2512.365234,684.468262 2512.392090,683.958252
z"/>
<path fill="#121239" opacity="1.000000" stroke="none"
	d="
M3184.627930,707.105591
	C3184.785645,707.118103 3184.861816,707.277771 3185.020264,707.689575
	C3184.916992,707.711975 3184.731689,707.482300 3184.627930,707.105591
z"/>
<path fill="#33338C" opacity="1.000000" stroke="none"
	d="
M2152.506348,600.110901
	C2152.857910,600.076965 2152.992432,600.332092 2152.946289,600.879822
	C2152.628662,600.913574 2152.469727,600.656067 2152.506348,600.110901
z"/>
<path fill="#41389C" opacity="1.000000" stroke="none"
	d="
M2970.680664,590.017456
	C2970.949463,590.192383 2970.894775,590.493835 2970.554199,590.935181
	C2970.414307,590.785828 2970.443848,590.475403 2970.680664,590.017456
z"/>
<path fill="#5149C6" opacity="1.000000" stroke="none"
	d="
M1438.720581,590.013550
	C1438.929443,590.209473 1438.822632,590.481445 1438.457275,590.864197
	C1438.359497,590.716003 1438.428223,590.420776 1438.720581,590.013550
z"/>
<path fill="#5149C6" opacity="1.000000" stroke="none"
	d="
M2089.686523,583.792358
	C2089.381348,583.887573 2089.189209,583.669434 2089.060547,583.150513
	C2089.340576,583.050964 2089.565918,583.260681 2089.686523,583.792358
z"/>
<path fill="#29245F" opacity="1.000000" stroke="none"
	d="
M1640.959351,567.460205
	C1640.951172,567.681213 1640.782227,567.776001 1640.342529,567.976440
	C1640.314087,567.832764 1640.556274,567.583374 1640.959351,567.460205
z"/>
<path fill="#292776" opacity="1.000000" stroke="none"
	d="
M2215.019043,502.590332
	C2214.988770,502.350037 2215.135742,502.216675 2215.558105,501.971130
	C2215.621094,502.138367 2215.408447,502.417816 2215.019043,502.590332
z"/>
<path fill="#33338C" opacity="1.000000" stroke="none"
	d="
M2152.794922,401.154602
	C2152.948975,401.362976 2152.838867,401.620972 2152.568115,402.017761
	C2152.452393,401.840729 2152.493408,401.523254 2152.794922,401.154602
z"/>
<path fill="#070717" opacity="1.000000" stroke="none"
	d="
M732.893555,201.743652
	C732.837830,201.863419 732.667908,201.899399 732.245483,201.871277
	C732.227356,201.608948 732.489441,201.559830 732.893555,201.743652
z"/>
</svg>
